# vtk DataFile Version 2.0
File written by itkPolyDataMeshIO
ASCII
DATASET POLYDATA
POINTS 51 float
-36.595047 -40.951393 -1208.118
-63.37429 19.58768 -1346.529
-93.63972 -48.8805 -1287.008
-35.71051 -94.648224 -1246.3083
-75.421234 -2.644959 -1197.4191
-42.463417 -21.53355 -1310.7155
-35.733936 -4.113336 -1189.9901
-55.59579 -65.85098 -1306.9786
-63.477867 -29.389053 -1193.1658
-70.9604 -22.886393 -1320.6418
-71.08479 -78.37757 -1223.8945
-51.746994 16.84045 -1258.2145
-58.905857 -6.966619 -1305.476
-46.075184 -21.381748 -1227.2749
-52.69267 -45.20911 -1284.3525
-71.80116 -50.62471 -1282.0872
-49.191093 -56.20455 -1213.451
-87.80045 -26.984838 -1239.7992
-45.55273 5.6427636 -1346.8403
-22.206154 -17.297554 -1163.2959
-29.350704 -34.74055 -1318.383
-54.022125 -34.790787 -1230.0941
-58.645172 -15.950925 -1229.6226
-43.52795 -0.113079585 -1234.0852
-86.91639 -33.54963 -1330.7744
-76.643166 -10.417977 -1244.2534
-43.540565 -53.80915 -1291.9122
-62.526 -40.524437 -1333.344
-43.881256 -14.351726 -1263.9031
-48.08921 -40.035835 -1176.2188
-32.147217 -30.766035 -1276.5653
-38.971355 -22.138233 -1185.5526
-70.413666 -16.293077 -1165.8505
-43.869946 -35.083664 -1318.4298
-63.816833 -81.81038 -1277.9583
-55.513557 -71.613434 -1245.7689
-52.539085 5.9593835 -1160.324
-49.837215 -9.604259 -1155.8077
-70.11526 -64.90144 -1306.9922
-59.03495 -35.312206 -1208.0319
-58.126286 -12.790806 -1295.8062
-41.71293 -30.590984 -1303.583
-38.482983 -58.3559 -1201.2068
-50.69341 -30.333807 -1227.5167
-56.722088 -30.214647 -1234.8923
-52.644684 -24.473919 -1224.9171
-51.824516 -4.542693 -1320.121
-34.45281 -33.32788 -1303.6343
-46.572716 -14.349432 -1322.8132
-61.3007 -52.14113 -1287.0073
-41.008316 -35.026615 -1190.7974
