# vtk DataFile Version 2.0
File written by itkPolyDataMeshIO
ASCII
DATASET POLYDATA
POINTS 51 float
-40.94 -47.022 -1169.5
-66.894 16.497 -1312
-98.995 -56.584 -1249.5
-39.574 -103.711 -1207
-81.237 -7.408 -1159.5
-45.721 -26.532 -1274.5
-40.257 -8.091 -1152
-59.381 -73.659 -1269.5
-68.943 -35.411 -1154.5
-75.09 -28.581 -1284.5
-76.456 -87.319 -1184.5
-55.966 13.765 -1222
-62.796 -11.506 -1269.5
-50.502 -26.532 -1189.5
-56.649 -51.803 -1247
-76.456 -57.95 -1244.5
-53.917 -63.414 -1174.5
-93.531 -33.362 -1202
-48.453 2.154 -1312
-26.597 -21.751 -1124.5
-32.061 -40.192 -1282
-58.698 -40.875 -1192
-63.479 -21.068 -1192
-47.77 -3.993 -1197
-91.482 -40.192 -1294.5
-81.92 -15.604 -1207
-47.087 -60.682 -1254.5
-66.211 -47.022 -1297
-47.77 -19.019 -1227
-53.234 -46.339 -1137
-35.476 -36.094 -1239.5
-43.672 -27.215 -1147
-76.456 -21.751 -1127
-47.087 -40.875 -1282
-68.26 -90.734 -1239.5
-60.064 -79.806 -1207
-58.015 2.154 -1122
-55.283 -14.238 -1117
-74.407 -72.976 -1269.5
-64.162 -41.558 -1169.5
-62.113 -17.653 -1259.5
-45.038 -36.094 -1267
-42.989 -65.463 -1162
-55.283 -36.094 -1189.5
-61.43 -36.094 -1197
-57.332 -29.947 -1187
-55.283 -8.774 -1284.5
-37.525 -38.826 -1267
-49.819 -19.019 -1287
-65.528 -59.316 -1249.5
-45.721 -40.875 -1152
