<svg xmlns="http://www.w3.org/2000/svg" viewBox="0 0 792 612" xmlns:v="https://vecta.io/nano"><path d="M301.8 416.7h14.9l5.2 28.4h.2l11.7-28.4H349l4.4 28.4h.2l12.5-28.4h14.1l-22.4 45.2H344l-5.2-30h-.2l-12.6 30h-14l-10.2-45.2zm105.7 39.6h-.2c-3.8 4.8-9.7 6.8-15.3 6.8-8.5 0-15.3-4.8-14.1-14 2.2-15.6 21.2-15.9 32.8-15.9.7-4.9-2.9-8.1-7.7-8.1-4.6 0-8.6 2-12.1 5.4l-6.4-7.6c5.8-4.8 13.6-7.3 20.9-7.3 16.3 0 19.4 8.3 17.4 23.3l-3.3 23h-12.8l.8-5.6zm-1.5-14.2c-4.3 0-13.9.4-14.7 6.5-.5 3.3 2.9 4.9 6 4.9 5.5 0 11-2.9 11.7-8.5l.5-3H406zm52.3-12.1c-1.7-2.5-4.2-3.8-7.5-3.8-2.3 0-5.3 1-5.7 3.7-.9 6.7 23.4 1 21 18.2-1.7 11.5-13.3 14.9-23 14.9-6.3 0-13-1.6-16.8-6.1l9.8-9.4c2.1 3.2 4.9 4.9 9.1 4.9 3.2 0 6.5-.8 6.8-3.3 1-7.3-23.3-1.1-20.9-18.3 1.5-10.6 11.6-15.3 21.1-15.3 6 0 12.4 1.5 15.9 6l-9.8 8.5zm19.3-13.3H491l-.8 6.1h.2c2.3-3.5 7.4-7.3 14.2-7.3 6.3 0 11.2 2.6 12.8 8.1 4-5.8 8.7-8.1 15.4-8.1 12.3 0 14.8 8.6 13.2 19.6l-3.7 26.7h-14l3.7-26.3c.6-4.2-.6-7.7-5.1-7.7-6.4 0-9 4.6-9.9 10.1l-3.3 23.9h-14l3.3-23.9c.5-3.3 1.6-10.1-4.8-10.1-7.3 0-9.1 5.7-10 11.5l-3.2 22.5h-14l6.6-45.1z" fill="#afafaf"/><path d="M239.7 153l-40.9 230.7h66.8l41-230.7z" fill="#064f8c"/><path d="M191.3 357.6l-66.3 21c-1.3.4-2.1 1.8-1.7 3.1h0c.3 1.2 1.3 2 2.5 2h62.6c1.3 0 2.3-.9 2.5-2.1l3.7-21c.4-2-1.4-3.6-3.3-3z" fill="#f7941d"/><path d="M334.3 383.7h9.4l29.7-168.9H364zm129.1 0h9.4l29.8-168.9h-9.4zm107.3-68.5l-4.9 27.7 23 94.4h11zm58.7-162.3h-11.7l-24.8 37-4 22.6h.6z" fill="#073e66"/><path d="M526.6 153H320.5l-9.7 53.7h73.4L353 383.6h60.6l31.2-176.9h56.1z" fill="#064f8c"/><path d="M187 246.1l85.6 59c18.8 13.4 26.3 37.7 18.4 59.4l-2.8 7.6-90.7-63.2C152 270.6 187 246.1 187 246.1z" fill="#f6b015"/><path d="M706.5 152.8h-67.4l-54.7 81.7h-7.9l14.4-81.5H539l-25.6 53.4-31.3 177.3h68.1l16.1-91.7h7.6l35.4 145.3h67.4L634.1 261z" fill="#064f8c"/><path d="M53.1 173.2l12.3-.7-7.4 7.1c-.8.8-.7 1 .3.5 6.3-3.3 26.2-13.2 26.2-13.2-8.5.1-20.8 1.2-31.6 5.7-1.1.3-1 .6.2.6z" fill="#f7941d"/><path d="M290.3 207.7l-64-44.4s-24.5-18.6-48.3-27l-19.2-8.2c-9.7-5.8-28.1.7-41.1 6.2l-34.4 14.3c-5.3 3.1-8.4 8.9-8.2 15v.1c.3 6.7 5.5 12.1 12.1 13.1l59.6 3.7c7.7.2 14.3-.3 20.4-3.9h0s10.3 1.2 31.6 17.2h0l107 80.7h.1l2.7-7.5c7.5-24.7.4-45.9-18.3-59.3z" fill="#f6b015"/><path d="M301.4 260.4L200.1 183h0c-21.2-16-31.6-17.2-31.6-17.2-6.1 3.6-12.6 4.1-20.4 3.9L88.5 166c-5.7-.8-10.3-5-11.6-10.3-1.2 2.5-1.8 5.2-1.7 8v.1c.3 6.5 5.2 11.8 11.5 13 .4.1.8.1 1.2.1l59 3.6c7.5.2 14.3-.3 20.4-3.9 0 0 10.3 1.2 31.6 17.2h0l97 73.3-3.3 18.5c5.7-1.7 11.4-6.1 13.4-10.8v-.1c1.6-5.2-.2-11-4.6-14.3z" fill="#f7941d"/><path d="M115.1 149.9s5.7-5.4 10-6 7.9.7 8.3 3c.3 2.3-3.4 2.7-7.7 3.3-4.2.6-10.6-.3-10.6-.3z" fill="#f1f2f2"/><path d="M283.8 358L204 302.4c-11-9.2-17.3-17.7-20.5-25.1-1.9-6.2-1.7-15.3 8-26.1.8-.8 1.7-.8 3.6.5h0l15.9 11 3.6-20.2-14.3-.1c-8.4 0-13.3 3.8-13.3 3.8s-35 24.5 10.5 62.8l79.2 55.2c.8.6 1.2 1.5 1 2.5l-2.9 16.2c5.7-1.7 11.5-5.7 13.3-10.7 2-5.3.2-11.1-4.3-14.2z" fill="#f7941d"/></svg>